<svg id="icons" enable-background="new 0 0 64 64" height="512" viewBox="0 0 64 64" width="512" xmlns="http://www.w3.org/2000/svg"><path d="m32.994 43.995h-28.988v-1-35.99h43.959.019l.01 18h-6z" fill="#545c66"/><path d="m27.01 12h-19.002c-.553 0-1-.447-1-1s.447-1 1-1h19.002c.553 0 1 .447 1 1s-.447 1-1 1z" fill="#5d9cec"/><g fill="#a0d468"><path d="m30.01 16h-20.002c-.553 0-1-.447-1-1s.447-1 1-1h20.002c.553 0 1 .447 1 1s-.447 1-1 1z"/><path d="m24.012 36.012h-14.004c-.553 0-1-.447-1-1s.447-1 1-1h14.004c.553 0 1 .447 1 1s-.448 1-1 1z"/><path d="m36.01 16h-2c-.553 0-1-.447-1-1s.447-1 1-1h2c.553 0 1 .447 1 1s-.447 1-1 1z"/></g><path d="m14.008 40h-6c-.553 0-1-.447-1-1s.447-1 1-1h6c.553 0 1 .447 1 1s-.447 1-1 1z" fill="#5d9cec"/><path d="m16.008 20h-4c-.553 0-1-.447-1-1s.447-1 1-1h4c.553 0 1 .447 1 1s-.447 1-1 1z" fill="#ed5565"/><path d="m41.01 20h-21.002c-.553 0-1-.447-1-1s.447-1 1-1h21.002c.553 0 1 .447 1 1s-.447 1-1 1z" fill="#ed5565"/><path d="m25.01 23.996h-13.002c-.553 0-1-.447-1-1s.447-1 1-1h13.002c.553 0 1 .447 1 1s-.447 1-1 1z" fill="#ffce54"/><path d="m33.018 32.004h-21.01c-.553 0-1-.447-1-1s.447-1 1-1h21.01c.553 0 1 .447 1 1s-.448 1-1 1z" fill="#ed5565"/><path d="m33.008 27.996h-13.999c-.553 0-1-.447-1-1s.447-1 1-1h13.999c.553 0 1 .447 1 1s-.447 1-1 1z" fill="#ffce54"/><path d="m15.009 27.996h-3.001c-.553 0-1-.447-1-1s.447-1 1-1h3.001c.553 0 1 .447 1 1s-.447 1-1 1z" fill="#ffce54"/><path d="m62.994 59.995c0 .55-.45 1-1 1h-28c-.55 0-1-.45-1-1v-33.99c0-.55.45-1 1-1h28c.55 0 1 .45 1 1z" fill="#656d78"/><path d="m53.994 25.005-.75 3-.25 1h-10l-.25-1-.75-3h6z" fill="#ffce54"/><path d="m42.994 29.005h10l.25-1h6.75v29.99h-24v-29.99h6.75z" fill="#e6e9ed"/><path d="m4.006 42.995v1h-1.981l-1-.996v-35.994h2.981z" fill="#434a54"/><path d="m47.965 7.005h-43.959-2.98-.02v-2c0-1.109.889-2 2-2h42.959c1.109 0 2 .891 2 2z" fill="#aab2bd"/><path d="m4.034 6.004c-.553 0-1.005-.447-1.005-1s.442-1 .994-1h.011c.552 0 1 .447 1 1s-.448 1-1 1z" fill="#ccd1d9"/><path d="m7.034 6.004c-.553 0-1.005-.447-1.005-1s.442-1 .994-1h.011c.552 0 1 .447 1 1s-.448 1-1 1z" fill="#ccd1d9"/><path d="m10.034 6.004c-.553 0-1.005-.447-1.005-1s.442-1 .994-1h.011c.552 0 1 .447 1 1s-.448 1-1 1z" fill="#ccd1d9"/><path d="m40.997 38.001c-.256 0-.512-.098-.707-.293l-1-1c-.391-.391-.391-1.023 0-1.414s1.023-.391 1.414 0l1 1c.391.391.391 1.023 0 1.414-.195.195-.451.293-.707.293z" fill="#a0d468"/><path d="m40.997 38.001c-.256 0-.512-.098-.707-.293-.391-.391-.391-1.023 0-1.414l3-3c.391-.391 1.023-.391 1.414 0s.391 1.023 0 1.414l-3 3c-.195.195-.451.293-.707.293z" fill="#a0d468"/><path d="m55.997 35.001h-8c-.553 0-1-.447-1-1s.447-1 1-1h8c.553 0 1 .447 1 1s-.447 1-1 1z" fill="#ccd1d9"/><path d="m50.997 38.001h-2.906c-.553 0-1-.447-1-1s.447-1 1-1h2.906c.553 0 1 .447 1 1s-.447 1-1 1z" fill="#ccd1d9"/><path d="m40.997 46c-.256 0-.512-.098-.707-.293l-1-1c-.391-.391-.391-1.023 0-1.414s1.023-.391 1.414 0l1 1c.391.391.391 1.023 0 1.414-.195.195-.451.293-.707.293z" fill="#a0d468"/><path d="m40.997 46c-.256 0-.512-.098-.707-.293-.391-.391-.391-1.023 0-1.414l3-3c.391-.391 1.023-.391 1.414 0s.391 1.023 0 1.414l-3 3c-.195.195-.451.293-.707.293z" fill="#a0d468"/><path d="m55.997 43h-8c-.553 0-1-.447-1-1s.447-1 1-1h8c.553 0 1 .447 1 1s-.447 1-1 1z" fill="#ccd1d9"/><path d="m50.997 46h-2.906c-.553 0-1-.447-1-1s.447-1 1-1h2.906c.553 0 1 .447 1 1s-.447 1-1 1z" fill="#ccd1d9"/><path d="m40.997 53.999c-.256 0-.512-.098-.707-.293l-1-1c-.391-.391-.391-1.023 0-1.414s1.023-.391 1.414 0l1 1c.391.391.391 1.023 0 1.414-.195.195-.451.293-.707.293z" fill="#a0d468"/><path d="m40.997 53.999c-.256 0-.512-.098-.707-.293-.391-.391-.391-1.023 0-1.414l3-3c.391-.391 1.023-.391 1.414 0s.391 1.023 0 1.414l-3 3c-.195.195-.451.293-.707.293z" fill="#a0d468"/><path d="m55.997 50.999h-8c-.553 0-1-.447-1-1s.447-1 1-1h8c.553 0 1 .447 1 1s-.447 1-1 1z" fill="#ccd1d9"/><path d="m50.997 53.999h-2.906c-.553 0-1-.447-1-1s.447-1 1-1h2.906c.553 0 1 .447 1 1s-.447 1-1 1z" fill="#ccd1d9"/><circle cx="2.025" cy="43" fill="#434a54" r="1"/></svg>