<svg height="512" viewBox="0 0 64 64" width="512" xmlns="http://www.w3.org/2000/svg"><path d="m52.01 20.67 4.03-5.64-7.07-7.07-5.64 4.03a22.546 22.546 0 0 0 -5.19-2.15l-1.14-6.84h-10l-1.14 6.84a22.546 22.546 0 0 0 -5.19 2.15l-5.64-4.03-7.07 7.07 4.03 5.64a22.546 22.546 0 0 0 -2.15 5.19l-6.84 1.14v10l6.84 1.14a22.546 22.546 0 0 0 2.15 5.19l-4.03 5.64 7.07 7.07 5.64-4.03a22.546 22.546 0 0 0 5.19 2.15l1.14 6.84h10l1.14-6.84a22.546 22.546 0 0 0 5.19-2.15l5.64 4.03 7.07-7.07-4.03-5.64a22.546 22.546 0 0 0 2.15-5.19l6.84-1.14v-10l-6.84-1.14a22.546 22.546 0 0 0 -2.15-5.19zm-20.01 30.33a19 19 0 1 1 19-19 19 19 0 0 1 -19 19z" fill="#9bc9ff"/><circle cx="46" cy="33" fill="#9bc9ff" r="2"/><circle cx="44" cy="25" fill="#9bc9ff" r="2"/><path d="m38 25.48a3.976 3.976 0 0 0 -.96-2.6l-5.04-5.88-5.04 5.88a3.976 3.976 0 0 0 -.96 2.6v5.52l-6 8h10v4l2 4 2-4v-4h10l-6-8zm-6 6.52a2 2 0 1 1 2-2 2.006 2.006 0 0 1 -2 2z" fill="#9bc9ff"/><circle cx="20" cy="25" fill="#9bc9ff" r="2"/><circle cx="18" cy="33" fill="#9bc9ff" r="2"/><g fill="#57a4ff"><path d="m61.165 26.014-6.216-1.036a23.916 23.916 0 0 0 -1.757-4.239l3.663-5.129a1 1 0 0 0 -.106-1.288l-7.071-7.071a1 1 0 0 0 -1.288-.106l-5.129 3.663a23.854 23.854 0 0 0 -4.239-1.757l-1.036-6.215a1 1 0 0 0 -.986-.836h-10a1 1 0 0 0 -.986.836l-1.036 6.215a23.854 23.854 0 0 0 -4.239 1.757l-5.129-3.663a1 1 0 0 0 -1.288.106l-7.071 7.071a1 1 0 0 0 -.106 1.288l3.663 5.129a23.916 23.916 0 0 0 -1.757 4.239l-6.216 1.036a1 1 0 0 0 -.835.986v10a1 1 0 0 0 .835.986l6.216 1.036a23.916 23.916 0 0 0 1.757 4.239l-3.663 5.129a1 1 0 0 0 .106 1.288l7.071 7.071a1 1 0 0 0 1.289.106l5.128-3.663a23.854 23.854 0 0 0 4.239 1.757l1.036 6.215a1 1 0 0 0 .986.836h10a1 1 0 0 0 .986-.836l1.036-6.215a23.854 23.854 0 0 0 4.239-1.757l5.128 3.663a1 1 0 0 0 1.289-.106l7.071-7.071a1 1 0 0 0 .106-1.288l-3.663-5.129a23.916 23.916 0 0 0 1.757-4.239l6.216-1.036a1 1 0 0 0 .835-.986v-10a1 1 0 0 0 -.835-.986zm-1.165 10.139-6 1a1 1 0 0 0 -.8.72 21.9 21.9 0 0 1 -2.058 4.964 1 1 0 0 0 .056 1.074l3.536 4.951-5.872 5.873-4.95-3.535a1 1 0 0 0 -1.075-.055 21.948 21.948 0 0 1 -4.964 2.055 1 1 0 0 0 -.72.8l-1 6h-8.306l-1-6a1 1 0 0 0 -.72-.8 21.948 21.948 0 0 1 -4.964-2.057 1 1 0 0 0 -1.075.055l-4.951 3.536-5.872-5.872 3.535-4.951a1 1 0 0 0 .056-1.074 21.9 21.9 0 0 1 -2.056-4.964 1 1 0 0 0 -.8-.72l-6-1v-8.306l6-1a1 1 0 0 0 .8-.72 21.9 21.9 0 0 1 2.058-4.964 1 1 0 0 0 -.056-1.074l-3.537-4.951 5.872-5.873 4.952 3.535a.993.993 0 0 0 1.075.055 21.922 21.922 0 0 1 4.963-2.055 1 1 0 0 0 .72-.8l1-6h8.306l1 6a1 1 0 0 0 .72.8 21.922 21.922 0 0 1 4.963 2.057.993.993 0 0 0 1.075-.055l4.952-3.536 5.872 5.873-3.535 4.95a1 1 0 0 0 -.056 1.074 21.9 21.9 0 0 1 2.056 4.964 1 1 0 0 0 .8.72l6 1z"/><path d="m32 12a20 20 0 1 0 20 20 20.023 20.023 0 0 0 -20-20zm0 38a18 18 0 1 1 18-18 18.021 18.021 0 0 1 -18 18z"/><path d="m32 33a3 3 0 1 0 -3-3 3 3 0 0 0 3 3zm0-4a1 1 0 1 1 -1 1 1 1 0 0 1 1-1z"/><path d="m39 30.667v-5.188a5 5 0 0 0 -1.2-3.252l-5.041-5.877a1.031 1.031 0 0 0 -1.518 0l-5.041 5.877a5 5 0 0 0 -1.2 3.252v5.188l-5.8 7.733a1 1 0 0 0 .8 1.6h5v2a1.006 1.006 0 0 0 .168.555l2 3a1 1 0 0 0 1.664 0l.758-1.138 1.515 3.03a1 1 0 0 0 1.79 0l1.515-3.03.758 1.138a1 1 0 0 0 1.664 0l2-3a1.006 1.006 0 0 0 .168-.555v-2h5a1 1 0 0 0 .8-1.6zm-12-5.188a3 3 0 0 1 .722-1.952l4.278-4.99 4.278 4.99a3 3 0 0 1 .722 1.952v12.521h-4v-1h-2v1h-4zm-2 8.521v4h-3zm3 9.2-1-1.5v-1.7h2v1.7zm4 1.567-1-2v-2.767h2v2.764zm4-1.567-1-1.5v-1.7h2v1.7zm3-5.2v-4l3 4z"/><path d="m20 28a3 3 0 1 0 -3-3 3 3 0 0 0 3 3zm0-4a1 1 0 1 1 -1 1 1 1 0 0 1 1-1z"/><path d="m21 33a3 3 0 1 0 -3 3 3 3 0 0 0 3-3zm-3 1a1 1 0 1 1 1-1 1 1 0 0 1 -1 1z"/><path d="m41 25a3 3 0 1 0 3-3 3 3 0 0 0 -3 3zm4 0a1 1 0 1 1 -1-1 1 1 0 0 1 1 1z"/><path d="m43 33a3 3 0 1 0 3-3 3 3 0 0 0 -3 3zm4 0a1 1 0 1 1 -1-1 1 1 0 0 1 1 1z"/></g></svg>